<?xml version="1.0" encoding="utf-8"?>
<!-- Generator: Adobe Illustrator 23.0.1, SVG Export Plug-In . SVG Version: 6.00 Build 0)  -->
<svg version="1.1" id="Livello_1" xmlns="http://www.w3.org/2000/svg" xmlns:xlink="http://www.w3.org/1999/xlink" x="0px" y="0px"
	 viewBox="0 0 800 800" style="enable-background:new 0 0 800 800;" xml:space="preserve">
<style type="text/css">
	.st0{fill:#FFFFFF;}
</style>
<path class="st0" d="M272.3,303.4h442.1v378.9H272.3V303.4z M302.2,334.7v315.8h378.9V334.7H302.2z M343.5,632l65.8-68.4l33.3,33.3
	l133.3-133.3l50,50l33.3-39.5V632L343.5,632L343.5,632z M409.3,380.2c0,36.8-29.8,66.7-66.7,66.7c-5.8,0-14.8-3-20.2-4.4v-84.2h80.8
	C404.6,363.6,409.3,374.5,409.3,380.2z M559.3,170.4h-421v357.9h-21.1v-379h442.1V170.4z M527.7,138.8h-421v357.9H85.6v-379h442.1
	V138.8z M620.8,231.2H199.7v357.9h-21.1v-379h442.2V231.2z M589.6,200h-421v357.9h-21.1V179h442.1V200z M653.4,263.5H232.3v357.9
	h-21.1v-379h442.2V263.5z M683.3,293.3H262.2v357.9h-21.1v-379h442.2V293.3z"/>
</svg>
