<?xml version="1.0" encoding="utf-8"?>
<!-- Generator: Adobe Illustrator 23.0.1, SVG Export Plug-In . SVG Version: 6.00 Build 0)  -->
<svg version="1.1" id="Livello_1" xmlns="http://www.w3.org/2000/svg" xmlns:xlink="http://www.w3.org/1999/xlink" x="0px" y="0px"
	 viewBox="0 0 800 800" style="enable-background:new 0 0 800 800;" xml:space="preserve">
<style type="text/css">
	.st0{fill:#FFFFFF;}
</style>
<path class="st0" d="M257.2,288.7h442.1v378.9H257.2V288.7z M287.1,320v315.8H666V320H287.1z M328.4,617.3l65.8-68.4l33.3,33.3
	l133.3-133.3l50,50l33.3-39.5v157.9H328.4z M394.2,365.5c0,36.8-29.8,66.7-66.7,66.7c-5.8,0-14.8-3-20.2-4.4v-84.2h80.8
	C389.5,348.9,394.2,359.8,394.2,365.5z M574.4,185.1h-421V543h-21.1V164h442.1V185.1z M542.8,153.5h-421v357.9h-21.1v-379h442.1
	V153.5z M635.9,245.9H214.8v357.9h-21.1v-379h442.2V245.9z M604.7,214.7h-421v357.9h-21.1V193.7h442.1V214.7z M668.5,278.2H247.4
	v357.9h-21.1v-379h442.2V278.2z"/>
</svg>
