<?xml version="1.0" encoding="utf-8"?>
<!-- Generator: Adobe Illustrator 23.0.1, SVG Export Plug-In . SVG Version: 6.00 Build 0)  -->
<svg version="1.1" id="Livello_1" xmlns="http://www.w3.org/2000/svg" xmlns:xlink="http://www.w3.org/1999/xlink" x="0px" y="0px"
	 viewBox="0 0 800 800" style="enable-background:new 0 0 800 800;" xml:space="preserve">
<style type="text/css">
	.st0{fill:#FFFFFF;}
</style>
<path class="st0" d="M241.1,272.3h442.1v378.9H241.1V272.3z M271,303.6v315.8h378.9V303.6H271z M312.3,600.9l65.8-68.4l33.3,33.3
	l133.3-133.3l50,50l33.3-39.5v157.9H312.3z M378.1,349.1c0,36.8-29.8,66.7-66.7,66.7c-5.8,0-14.8-3-20.2-4.4v-84.2H372
	C373.4,332.5,378.1,343.4,378.1,349.1z M590.5,201.4H169.5v357.9h-21.1V180.3h442.1V201.4z M558.9,169.8H137.9v357.9h-21.1V148.7
	h442.1V169.8z M652,262.2H230.9v357.9h-21.1V241.1H652V262.2z M620.8,231H199.8v357.9h-21.1V210h442.1V231z"/>
</svg>
